<?xml version="1.0" encoding="UTF-8"?>
<!DOCTYPE svg PUBLIC "-//W3C//DTD SVG 1.1//EN" "http://www.w3.org/Graphics/SVG/1.1/DTD/svg11.dtd">
<!-- Creator: CorelDRAW 2019 (64-Bit) -->
<svg xmlns="http://www.w3.org/2000/svg" xml:space="preserve" width="125px" height="178px" version="1.1" style="shape-rendering:geometricPrecision; text-rendering:geometricPrecision; image-rendering:optimizeQuality; fill-rule:evenodd; clip-rule:evenodd"
viewBox="0 0 118.97 169.94"
 xmlns:xlink="http://www.w3.org/1999/xlink">
 <defs>
  <style type="text/css">
   <![CDATA[
    .fil0 {fill:#616161}
    .fil1 {fill:#616161;fill-rule:nonzero}
   ]]>
  </style>
 </defs>
 <g id="Layer_x0020_1">
  <metadata id="CorelCorpID_0Corel-Layer"/>
  <path class="fil0" d="M102.08 94.05c-7.14,-5.66 -26.49,-21.13 -29.46,-30.95 -2.09,-7.15 -9.53,-11.02 -16.37,-9.23 -7.14,2.08 -11.01,9.52 -9.23,16.37 4.77,16.67 22.32,31.55 38.4,44.34 0.59,0.3 1.19,0.6 1.78,0.6 0.9,0 1.49,-0.3 2.09,-0.89 0.89,-1.19 0.59,-2.98 -0.3,-3.87 -15.48,-12.21 -32.14,-26.49 -36.61,-41.67 -1.19,-4.17 1.19,-8.63 5.36,-9.82 4.16,-1.19 8.63,1.19 9.82,5.36 2.97,10.11 17.26,22.61 31.25,33.63 1.19,0.89 2.97,0.59 3.87,-0.3 0.59,-0.89 0.59,-2.68 -0.6,-3.57z"/>
  <path class="fil0" d="M109.52 70.24c-6.25,-5.06 -15.47,-12.5 -16.66,-13.69 -5.66,-17.56 -24.71,-27.98 -42.56,-22.62 -8.93,2.68 -16.37,8.33 -20.84,16.67 -4.46,8.03 -5.65,17.55 -2.97,26.48 4.46,15.18 -5.06,19.35 -8.04,20.24 -1.49,0.3 -2.08,1.79 -1.78,3.28 0.29,1.19 1.48,1.78 2.67,1.78 0.3,0 0.6,0 0.9,0 8.03,-2.68 16.07,-11.01 11.61,-26.78 -2.09,-7.45 -1.2,-15.48 2.38,-22.33 3.87,-6.84 10.12,-11.9 17.56,-13.98 15.17,-4.47 31.54,4.46 36.01,19.64 0,0.3 0,0.3 0.3,0.6 0.29,0.59 0.89,1.48 17.85,15.47 1.19,0.89 2.68,0.89 3.87,-0.3 1.19,-2.08 0.89,-3.57 -0.3,-4.46z"/>
  <path class="fil0" d="M106.84 83.33c-19.64,-15.77 -23.21,-20.53 -23.81,-23.21 -3.57,-12.8 -16.96,-19.94 -29.76,-16.37 -12.2,3.57 -19.34,16.37 -16.37,29.46 5.36,24.41 1.49,30.06 -9.82,33.63 -1.48,0.3 -2.08,2.09 -1.78,3.28 0.3,1.19 1.49,1.78 2.68,1.78 0.29,0 0.59,0 0.89,0 15.47,-4.76 18.75,-14.88 13.39,-39.88 -2.38,-10.41 3.27,-20.53 12.8,-23.21 9.82,-2.98 20.24,2.98 23.21,12.8 0.9,3.57 3.87,8.63 25.6,25.89 1.19,0.89 2.97,0.59 3.87,-0.3 0.59,-1.19 0.3,-2.97 -0.9,-3.87z"/>
  <path class="fil0" d="M96.43 102.38c-1.19,-1.19 -3.28,-2.98 -6.25,-5.06 -8.93,-6.84 -24.11,-18.15 -27.98,-31.25 -0.3,-1.49 -1.78,-2.08 -3.27,-1.78 -1.49,0.29 -2.08,1.78 -1.79,3.27 4.17,14.58 20.24,26.79 29.76,33.93 2.39,1.78 4.77,3.57 5.66,4.46 0.59,0.6 1.19,0.9 1.79,0.9 0.59,0 1.48,-0.3 1.78,-0.9 1.49,-0.89 1.49,-2.68 0.3,-3.57z"/>
  <path class="fil0" d="M77.68 118.16c-0.6,-0.6 -1.19,-1.49 -1.79,-2.39 -2.68,-3.57 -6.55,-8.93 -13.39,-8.93 -8.93,0 -10.42,15.48 -10.71,18.46 0,1.49 0.89,2.68 2.38,2.68 0,0 0,0 0.3,0 1.48,0 2.67,-1.19 2.67,-2.39 0.3,-5.65 2.38,-13.39 5.36,-13.39 3.87,0 6.84,3.87 8.93,6.85 0.89,1.19 1.79,2.38 2.38,2.97 0.89,0.9 2.68,0.9 3.87,0 1.19,-0.89 1.19,-2.67 0,-3.86z"/>
  <path class="fil0" d="M51.79 92.56c-0.6,-1.49 -2.09,-2.08 -3.28,-1.79 -1.49,0.6 -2.08,2.09 -1.78,3.28 2.38,7.14 -2.09,21.13 -8.93,23.21 -1.49,0.6 -2.09,2.09 -1.79,3.28 0.3,1.19 1.49,1.78 2.68,1.78 0.3,0 0.59,0 0.89,0 10.12,-2.97 14.89,-20.83 12.21,-29.76z"/>
  <path class="fil0" d="M108.63 56.25c-3.27,-1.19 -5.95,-5.36 -8.93,-10.12 -6.55,-10.42 -15.18,-24.7 -39.88,-24.7 -25,0 -45.24,20.24 -45.24,45.24 0,1.48 1.19,2.67 2.68,2.67 1.49,0 2.68,-1.19 2.68,-2.67 0,-22.03 17.86,-39.88 39.88,-39.88 21.73,0 29.17,12.2 35.42,22.02 3.57,5.66 6.54,10.71 11.9,12.5 1.49,0.6 2.98,-0.3 3.27,-1.79 0.6,-1.19 -0.29,-2.67 -1.78,-3.27z"/>
  <path class="fil0" d="M22.32 84.23c-0.89,-1.79 -2.38,-5.36 -2.38,-6.85 0,-1.49 -1.19,-2.68 -2.68,-2.68 -1.49,0 -2.68,1.19 -2.68,2.68 0,3.27 2.39,8.33 2.98,9.23 0.6,0.89 1.49,1.49 2.38,1.49 0.3,0 0.89,0 1.19,-0.3 1.19,-0.6 1.79,-2.09 1.19,-3.57z"/>
  <path class="fil0" d="M99.4 28.27c-3.57,-6.25 -19.64,-17.56 -42.26,-17.56 -23.81,0 -36.6,12.51 -39.58,17.27 -0.89,1.19 -0.3,2.97 0.89,3.57 1.19,0.89 2.98,0.3 3.57,-0.9 2.39,-3.86 13.69,-14.58 35.12,-14.58 20.54,0 35.12,10.42 37.8,14.58 0.6,0.9 1.49,1.2 2.38,1.2 0.6,0 0.89,0 1.49,-0.3 1.19,-0.6 1.49,-2.09 0.59,-3.28z"/>
  <path class="fil0" d="M87.5 5.65c-0.89,-0.29 -2.08,-0.59 -2.98,-1.19 -5.95,-2.08 -11.9,-4.46 -27.08,-4.46 -13.99,0 -17.56,1.79 -22.02,4.17 -0.9,0.59 -1.79,0.89 -2.98,1.48 -1.19,0.6 -2.08,2.09 -1.19,3.58 0.3,1.48 1.79,2.08 2.98,1.48 1.19,-0.59 2.38,-1.19 3.27,-1.48 3.87,-2.09 6.84,-3.58 19.64,-3.58 14.29,0 19.65,2.09 25.3,4.17 0.89,0.3 2.08,0.89 2.98,1.19 0.3,0 0.59,0 0.89,0 1.19,0 2.08,-0.59 2.38,-1.78 0.89,-1.49 0,-2.98 -1.19,-3.58z"/>
  <path class="fil0" d="M110.42 44.64c-1.49,-4.46 -5.36,-11.01 -5.66,-11.31 -0.89,-1.19 -2.38,-1.78 -3.57,-0.89 -1.19,0.89 -1.79,2.38 -0.89,3.57 0,0 3.87,6.25 5.06,10.12 0.29,1.19 1.48,1.79 2.67,1.79 0.3,0 0.6,0 0.9,0 1.19,-0.3 2.08,-1.79 1.49,-3.28z"/>
  <path class="fil1" d="M0 169.73l3.82 0 0 -13.18 10.33 0 0 -3.11 -10.33 0 0 -9.86 12.72 0 0 -3.11 -16.54 0 0 29.26zm40.8 0l4.03 0 -10.54 -29.09 -4.4 0 -10.58 29.09 4.03 0 2.35 -6.51 12.76 0 2.35 6.51zm-3.44 -9.61l-10.58 0 5.29 -14.78 5.29 14.78zm15.91 -5.75l0 -10.75 5.63 0c4.36,0 6.21,2.01 6.21,5.42 0,3.27 -1.85,5.33 -6.21,5.33l-5.63 0zm15.74 -5.33c0,-4.79 -3.23,-8.57 -10.11,-8.57l-9.45 0 0 29.26 3.82 0 0 -12.21 5.63 0c7.26,0 10.11,-4.03 10.11,-8.48zm4.04 -2.02l3.73 0c0.38,-2.94 2.52,-4.95 6.09,-4.95 3.65,0 5.58,2.01 5.58,4.91 0,3.53 -2.73,5.08 -7.81,5.12l-1.01 0 0 3.19 0.97 0c5.46,0 8.44,1.64 8.44,5.92 0,3.11 -1.93,5.5 -6,5.5 -4.03,0 -6.38,-2.48 -6.76,-5.71l-3.7 0c0.47,5.88 4.74,8.94 10.5,8.94 6.34,0 9.61,-3.69 9.61,-8.39 0,-4.37 -2.39,-6.97 -5.92,-7.81l0 -0.21c3.19,-0.71 5.38,-3.44 5.38,-6.93 0,-4.36 -3.24,-7.8 -9.15,-7.8 -5.63,0 -9.58,3.01 -9.95,8.22zm24.8 7.22c0,8.82 2.18,15.49 10.59,15.49 8.35,0 10.53,-6.67 10.53,-15.49 0,-8.69 -2.18,-15.32 -10.53,-15.32 -8.41,0 -10.59,6.63 -10.59,15.32zm17.34 0c0,6.55 -0.8,12.01 -6.75,12.01 -6.01,0 -6.81,-5.46 -6.81,-12.01 0,-6.3 0.8,-11.83 6.81,-11.83 5.95,0 6.75,5.53 6.75,11.83z"/>
 </g>
</svg>
