<?xml version="1.0" encoding="UTF-8"?>
<!DOCTYPE svg PUBLIC "-//W3C//DTD SVG 1.1//EN" "http://www.w3.org/Graphics/SVG/1.1/DTD/svg11.dtd">
<!-- Creator: CorelDRAW 2019 (64-Bit) -->
<svg xmlns="http://www.w3.org/2000/svg" xml:space="preserve" width="501px" height="601px" version="1.1" style="shape-rendering:geometricPrecision; text-rendering:geometricPrecision; image-rendering:optimizeQuality; fill-rule:evenodd; clip-rule:evenodd"
viewBox="0 0 180.82 216.95"
 xmlns:xlink="http://www.w3.org/1999/xlink">
 <defs>
  <style type="text/css">
   <![CDATA[
    .fil0 {fill:#616161}
    .fil1 {fill:#616161;fill-rule:nonzero}
   ]]>
  </style>
 </defs>
 <g id="Layer_x0020_1">
  <metadata id="CorelCorpID_0Corel-Layer"/>
  <g id="_1397055888256">
   <g>
    <path class="fil0" d="M37.95 164.09c-3.99,-1.43 -5.69,-4.27 -5.69,-8.53 0.28,-3.7 0,-7.11 0,-10.81 0,-1.99 1.42,-3.13 2.84,-2.85 1.42,0.29 1.99,1.43 1.99,2.85 0,3.7 0,7.39 0,11.09 0,2.56 0.57,3.13 3.13,3.13 33.27,0 66.83,0 100.1,0 2.56,0 3.13,-0.57 3.13,-3.13 0,-16.78 0,-33.27 0,-50.05 0,-0.57 0,-1.14 0,-1.71 -35.55,0 -70.81,0 -106.36,0 0,0.57 0,1.42 0,1.99 0,8.53 0,16.78 0,25.31 0,0.57 0,1.14 0,1.71 -0.28,1.42 -0.85,2.27 -2.27,2.27 -1.43,0 -2.28,-0.56 -2.28,-1.99 0,-0.56 0,-1.13 0,-1.7 0,-9.1 0,-18.2 0,-27.3 0,-0.86 -0.29,-1.71 -0.57,-2.28 -7.68,-11.66 -15.36,-23.03 -23.32,-34.69 0,-0.57 0,-1.14 0,-1.71 1.71,-2.28 3.41,-2.28 4.84,0.29 6.54,9.95 13.36,19.9 19.9,29.85 0.29,0.57 0.57,0.86 1.14,1.71 0.85,-1.42 1.42,-2.84 1.99,-3.98 2.28,-4.55 4.84,-9.1 7.11,-13.65 0.85,-1.71 2.28,-2.56 4.27,-2.56 28.15,0 56.59,0 84.74,0 1.99,0 3.42,0.85 4.27,2.56 2.84,5.4 5.69,10.52 8.53,15.93 0.29,0.56 0.57,0.85 0.85,1.42 0.29,-0.57 0.86,-1.14 1.14,-1.42 6.54,-9.96 13.37,-19.91 19.91,-29.86 1.71,-2.28 3.13,-2.56 4.83,-0.29 0,0.57 0,1.14 0,1.71 -7.68,11.37 -15.35,22.75 -23.03,34.12 -0.57,0.86 -0.86,1.99 -0.86,2.85 0,17.06 0,34.12 0,51.19 0,4.26 -1.42,7.39 -5.68,8.81 -34.98,-0.28 -69.68,-0.28 -104.65,-0.28zm104.08 -64.56c-3.13,-5.68 -5.97,-11.37 -8.82,-16.77 -0.28,-0.29 -1.14,-0.57 -1.7,-0.57 -27.31,0 -54.89,0 -82.19,0 -1.14,0 -1.42,0.28 -1.99,1.13 -2.56,5.12 -5.12,9.96 -7.96,15.08 -0.29,0.28 -0.29,0.85 -0.57,1.42 34.41,-0.29 68.53,-0.29 103.23,-0.29z"/>
    <path class="fil0" d="M103.07 0.28c1.13,0.86 1.99,1.71 1.42,3.13 -0.57,1.42 -1.71,1.71 -3.13,1.71 -15.35,0 -30.43,0 -45.78,0 -3.42,0 -4.55,1.14 -4.55,4.26 0,13.94 0,28.16 0,42.09 0,3.42 1.13,4.55 4.55,4.55 8.81,0 17.34,0 26.16,0 1.99,0 3.41,0.86 4.55,2.56 1.14,1.99 2.56,3.98 3.98,6.26 1.42,-2.28 2.84,-4.27 3.98,-6.26 1.14,-1.71 2.56,-2.56 4.84,-2.56 8.81,0 17.34,0 26.16,0 3.41,0 4.55,-1.13 4.55,-4.26 0,-13.94 0,-28.16 0,-42.09 0,-3.13 -1.14,-4.27 -4.27,-4.27 -3.69,0 -7.11,0 -10.8,0 -1.42,0 -2.56,-0.28 -3.13,-1.7 -0.57,-1.43 0.28,-2.56 1.42,-3.13 5.12,0 9.95,0 15.07,0 1.14,0.57 2.56,1.13 3.7,1.99 1.99,1.71 2.85,3.7 2.85,6.25 0,14.51 0,29.01 0,43.51 0,5.12 -3.42,8.54 -8.54,8.54 -8.53,0 -17.06,0 -25.59,0 -1.14,0 -1.71,0.28 -2.28,1.13 -1.42,2.28 -3.12,4.84 -4.55,7.11 -1.7,2.56 -4.26,2.56 -5.68,0 -1.71,-2.27 -3.13,-4.83 -4.55,-7.39 -0.57,-0.85 -1.14,-1.14 -1.99,-1.14 -8.25,0 -16.5,0 -25.03,0 -6.26,0 -9.38,-3.13 -9.38,-9.67 0,-13.65 0,-27.01 0,-40.66 0,-5.12 1.7,-8.53 6.54,-10.24 15.92,0.28 32.7,0.28 49.48,0.28z"/>
    <path class="fil0" d="M72.64 115.46c4.55,0 9.38,0 13.93,0 2.85,0 4.27,1.42 4.27,4.26 0,4.55 0,9.39 0,13.94 0,2.84 -1.42,4.26 -4.27,4.26 -9.38,0 -18.76,0 -28.15,0 -2.84,0 -4.27,-1.42 -4.27,-4.26 0,-4.55 0,-9.39 0,-13.94 0,-2.84 1.43,-4.26 4.27,-4.26 4.84,0 9.39,0 14.22,0zm-13.65 17.91c9.1,0 18.2,0 27.02,0 0,-4.26 0,-8.53 0,-12.79 -9.11,0 -17.92,0 -27.02,0 0,3.98 0,8.24 0,12.79z"/>
    <path class="fil0" d="M111.03 129.11c-3.13,0 -6.26,0 -9.38,0 -1.99,0 -2.85,-0.86 -2.85,-2.56 0,-1.42 1.14,-2.28 2.85,-2.28 6.25,0 12.51,0 18.77,0 1.99,0 2.84,0.86 2.84,2.56 0,1.42 -1.14,2.28 -2.84,2.28 -3.13,0 -6.26,0 -9.39,0z"/>
    <path class="fil0" d="M111.03 131.95c3.13,0 6.26,0 9.39,0 1.99,0 2.84,0.86 2.84,2.28 0,1.42 -0.85,2.56 -2.84,2.56 -6.26,0 -12.52,0 -18.77,0 -1.99,0 -2.85,-0.86 -2.85,-2.56 0,-1.42 0.86,-2.28 2.85,-2.28 3.12,0 6.25,0 9.38,0z"/>
    <path class="fil0" d="M107.05 116.88c1.71,0 3.7,0 5.4,0 1.71,0 2.56,0.85 2.85,2.28 0,1.42 -0.86,2.55 -2.56,2.55 -3.7,0 -7.4,0 -11.09,0 -1.71,0 -2.85,-0.85 -2.56,-2.55 0,-1.43 0.85,-2.28 2.84,-2.28 1.42,0 3.41,0 5.12,0z"/>
    <path class="fil0" d="M81.74 30.43c0,-3.41 0,-6.83 0,-9.95 0,-2.28 0.85,-3.13 3.13,-3.13 1.7,0 3.41,0 5.4,0 5.12,0 8.53,2.56 10.24,7.11 1.7,4.55 1.42,9.1 -0.86,13.65 -1.99,3.41 -4.83,5.4 -8.81,5.4 -1.99,0 -3.7,0 -5.69,0 -2.28,0 -3.13,-0.85 -3.13,-2.84 -0.28,-3.42 -0.28,-6.83 -0.28,-10.24zm4.83 -8.25c0,5.4 0,11.09 0,16.5 4.55,0.56 6.83,0 8.25,-2.56 2.28,-3.7 2.28,-7.4 0,-11.09 -1.99,-3.42 -5.12,-2.85 -8.25,-2.85z"/>
    <path class="fil0" d="M68.66 43.79c-3.41,-0.28 -6.26,-1.13 -8.82,-3.69 -1.42,-1.14 -1.42,-2.85 -0.57,-3.7 1.14,-1.14 2.28,-1.14 3.7,0.28 1.71,1.71 3.98,2.56 6.26,2.28 0.85,0 1.99,-0.57 2.84,-1.42 1.14,-1.14 1.14,-2.56 0,-3.7 -0.57,-0.57 -1.42,-0.85 -2.27,-1.14 -1.99,-0.85 -3.7,-1.42 -5.69,-2.27 -2.56,-1.14 -3.98,-2.85 -4.27,-5.69 -0.28,-2.84 0.86,-5.12 3.42,-6.54 4.55,-2.84 9.95,-1.14 13.08,1.42 1.13,0.85 1.13,1.99 0.28,3.13 -0.85,1.14 -1.99,1.14 -3.13,0.57 -1.42,-0.57 -2.84,-1.42 -4.26,-1.71 -1.14,-0.28 -2.28,0 -3.13,0.57 -0.57,0.28 -1.14,1.42 -1.14,1.99 0,0.57 0.86,1.42 1.43,1.71 2.55,1.13 5.11,1.99 7.67,3.41 2.85,1.42 4.27,3.98 3.7,7.11 -0.28,3.13 -2.27,5.4 -5.12,6.54 -1.14,0.29 -2.56,0.57 -3.98,0.85z"/>
    <path class="fil0" d="M109.32 24.46c2.28,-2.28 4.84,-4.27 7.11,-6.54 1.43,-1.43 2.85,-1.43 3.7,-0.29 1.14,1.14 0.85,2.56 -0.57,3.7 -2.84,2.84 -5.97,5.4 -8.24,7.68 2.84,3.13 5.4,5.97 7.96,8.81 0.57,0.57 1.14,0.86 1.42,1.43 0.85,1.13 0.85,2.55 0,3.41 -0.85,0.85 -2.27,0.85 -3.41,0 -2.28,-2.28 -4.55,-4.55 -6.83,-6.54 -0.28,-0.29 -0.85,-0.86 -1.7,-1.42 0,2.27 0,4.26 0,6.25 0,1.71 -0.86,2.56 -1.99,2.85 -1.71,0.28 -2.56,-0.86 -2.56,-2.56 0,-3.7 0,-7.4 0,-11.09 0,-3.42 0,-6.83 0,-9.96 0,-1.99 0.85,-2.84 2.27,-2.84 1.42,0 2.28,1.14 2.28,2.84 0.28,1.14 0.28,2.56 0.56,4.27 -0.28,0 0,0 0,0z"/>
   </g>
  </g>
  <path class="fil1" d="M36.65 182.78l0 33.79 -5.54 0 0 -21.83c0,-0.87 0.05,-1.81 0.14,-2.82l-10.21 19.19c-0.49,0.91 -1.23,1.37 -2.22,1.37l-0.89 0c-1,0 -1.74,-0.46 -2.22,-1.37l-10.33 -19.26c0.04,0.51 0.08,1.02 0.11,1.51 0.03,0.5 0.05,0.96 0.05,1.38l0 21.83 -5.54 0 0 -33.79 4.74 0c0.29,0 0.53,0 0.73,0.02 0.2,0.01 0.39,0.05 0.55,0.12 0.17,0.06 0.31,0.16 0.45,0.3 0.13,0.14 0.25,0.33 0.38,0.56l10.12 18.77c0.26,0.5 0.51,1.01 0.74,1.54 0.23,0.53 0.44,1.08 0.66,1.64 0.22,-0.58 0.45,-1.14 0.68,-1.68 0.23,-0.53 0.48,-1.05 0.75,-1.55l9.98 -18.72c0.12,-0.23 0.26,-0.42 0.4,-0.56 0.14,-0.14 0.29,-0.24 0.46,-0.3 0.16,-0.07 0.34,-0.11 0.54,-0.12 0.2,-0.02 0.45,-0.02 0.73,-0.02l4.74 0zm39.76 16.9c0,2.47 -0.4,4.76 -1.22,6.87 -0.82,2.12 -1.98,3.95 -3.48,5.49 -1.49,1.54 -3.29,2.74 -5.4,3.61 -2.1,0.86 -4.44,1.3 -7.01,1.3 -2.55,0 -4.88,-0.44 -6.99,-1.3 -2.1,-0.87 -3.9,-2.07 -5.41,-3.61 -1.5,-1.54 -2.67,-3.37 -3.49,-5.49 -0.83,-2.11 -1.24,-4.4 -1.24,-6.87 0,-2.48 0.41,-4.78 1.24,-6.89 0.82,-2.11 1.99,-3.94 3.49,-5.48 1.51,-1.54 3.31,-2.75 5.41,-3.61 2.11,-0.87 4.44,-1.3 6.99,-1.3 1.71,0 3.33,0.2 4.84,0.59 1.51,0.4 2.9,0.96 4.16,1.69 1.26,0.72 2.4,1.6 3.4,2.64 1.01,1.03 1.86,2.2 2.56,3.47 0.7,1.28 1.24,2.67 1.61,4.16 0.36,1.5 0.54,3.07 0.54,4.73zm-6.43 0c0,-1.86 -0.25,-3.53 -0.75,-5 -0.49,-1.47 -1.2,-2.72 -2.12,-3.75 -0.92,-1.03 -2.04,-1.81 -3.35,-2.36 -1.32,-0.54 -2.81,-0.82 -4.46,-0.82 -1.65,0 -3.13,0.28 -4.45,0.82 -1.31,0.55 -2.44,1.33 -3.36,2.36 -0.93,1.03 -1.65,2.28 -2.15,3.75 -0.5,1.47 -0.74,3.14 -0.74,5 0,1.85 0.24,3.51 0.74,4.98 0.5,1.47 1.22,2.72 2.15,3.74 0.92,1.02 2.05,1.81 3.36,2.35 1.32,0.55 2.8,0.82 4.45,0.82 1.65,0 3.14,-0.27 4.46,-0.82 1.31,-0.54 2.43,-1.33 3.35,-2.35 0.92,-1.02 1.63,-2.27 2.12,-3.74 0.5,-1.47 0.75,-3.13 0.75,-4.98zm22.19 -0.82c1.18,0 2.22,-0.15 3.1,-0.45 0.88,-0.29 1.6,-0.71 2.17,-1.23 0.57,-0.52 0.99,-1.14 1.27,-1.85 0.28,-0.72 0.42,-1.51 0.42,-2.36 0,-1.72 -0.56,-3.03 -1.69,-3.95 -1.13,-0.92 -2.86,-1.38 -5.18,-1.38l-4.02 0 0 11.22 3.93 0zm16.17 17.71l-5.68 0c-1.07,0 -1.85,-0.42 -2.34,-1.26l-7.1 -10.82c-0.27,-0.4 -0.56,-0.69 -0.88,-0.86 -0.31,-0.18 -0.79,-0.26 -1.41,-0.26l-2.69 0 0 13.2 -6.29 0 0 -33.79 10.31 0c2.29,0 4.26,0.23 5.9,0.7 1.65,0.48 3,1.15 4.05,2.01 1.05,0.85 1.82,1.87 2.32,3.07 0.5,1.19 0.75,2.51 0.75,3.94 0,1.14 -0.17,2.21 -0.5,3.22 -0.34,1.02 -0.82,1.94 -1.45,2.76 -0.63,0.83 -1.41,1.55 -2.34,2.18 -0.92,0.62 -1.98,1.11 -3.17,1.47 0.41,0.23 0.78,0.51 1.12,0.83 0.35,0.32 0.66,0.7 0.94,1.13l8.46 12.48zm9.98 -28.79l0 10 12.67 0 0 5.03 -12.67 0 0 13.76 -6.31 0 0 -33.79 21.32 0 0 5 -15.01 0zm26.46 28.79l-6.31 0 0 -33.79 6.31 0 0 33.79zm36.04 -33.79l0 33.79 -3.22 0c-0.5,0 -0.91,-0.08 -1.25,-0.24 -0.33,-0.17 -0.66,-0.44 -0.97,-0.83l-17.65 -22.53c0.09,1.03 0.14,1.98 0.14,2.85l0 20.75 -5.54 0 0 -33.79 3.3 0c0.26,0 0.5,0 0.69,0.03 0.19,0.02 0.37,0.07 0.51,0.14 0.15,0.07 0.29,0.17 0.43,0.3 0.14,0.13 0.3,0.31 0.47,0.53l17.72 22.63c-0.05,-0.55 -0.09,-1.09 -0.12,-1.62 -0.03,-0.53 -0.05,-1.02 -0.05,-1.47l0 -20.54 5.54 0z"/>
 </g>
</svg>
