<?xml version="1.0" encoding="UTF-8"?>
<!DOCTYPE svg PUBLIC "-//W3C//DTD SVG 1.1//EN" "http://www.w3.org/Graphics/SVG/1.1/DTD/svg11.dtd">
<!-- Creator: CorelDRAW 2019 (64-Bit) -->
<svg xmlns="http://www.w3.org/2000/svg" xml:space="preserve" width="111px" height="177px" version="1.1" style="shape-rendering:geometricPrecision; text-rendering:geometricPrecision; image-rendering:optimizeQuality; fill-rule:evenodd; clip-rule:evenodd"
viewBox="0 0 81.14 129.81"
 xmlns:xlink="http://www.w3.org/1999/xlink">
 <defs>
  <style type="text/css">
   <![CDATA[
    .fil0 {fill:#616161}
    .fil1 {fill:#616161;fill-rule:nonzero}
   ]]>
  </style>
 </defs>
 <g id="Layer_x0020_1">
  <metadata id="CorelCorpID_0Corel-Layer"/>
  <g id="_1397086074112">
   <path class="fil0" d="M70.89 72.23c-5.48,-4.35 -20.34,-16.23 -22.62,-23.77 -1.6,-5.49 -7.32,-8.46 -12.57,-7.09 -5.49,1.6 -8.46,7.31 -7.09,12.57 3.66,12.8 17.14,24.23 29.49,34.06 0.45,0.23 0.91,0.45 1.37,0.45 0.68,0 1.14,-0.22 1.6,-0.68 0.68,-0.92 0.45,-2.29 -0.23,-2.97 -11.89,-9.37 -24.69,-20.35 -28.11,-32 -0.92,-3.2 0.91,-6.63 4.11,-7.54 3.2,-0.92 6.63,0.91 7.54,4.11 2.29,7.77 13.26,17.37 24,25.83 0.91,0.68 2.29,0.45 2.97,-0.23 0.46,-0.69 0.46,-2.06 -0.46,-2.74z"/>
   <path class="fil0" d="M76.61 53.94c-4.8,-3.88 -11.89,-9.6 -12.8,-10.51 -4.34,-13.49 -18.97,-21.49 -32.68,-17.37 -6.86,2.05 -12.58,6.4 -16,12.8 -3.43,6.17 -4.35,13.48 -2.29,20.34 3.43,11.66 -3.89,14.85 -6.17,15.54 -1.14,0.23 -1.6,1.37 -1.37,2.51 0.23,0.92 1.14,1.38 2.05,1.38 0.23,0 0.46,0 0.69,0 6.17,-2.06 12.34,-8.46 8.91,-20.57 -1.6,-5.72 -0.91,-11.89 1.83,-17.15 2.97,-5.25 7.77,-9.14 13.49,-10.74 11.65,-3.43 24.23,3.43 27.65,15.09 0,0.23 0,0.23 0.23,0.45 0.23,0.46 0.69,1.15 13.72,11.89 0.91,0.68 2.05,0.68 2.97,-0.23 0.91,-1.6 0.68,-2.74 -0.23,-3.43z"/>
   <path class="fil0" d="M74.55 64c-15.08,-12.12 -17.83,-15.77 -18.28,-17.83 -2.75,-9.83 -13.03,-15.31 -22.86,-12.57 -9.37,2.74 -14.86,12.57 -12.57,22.63 4.11,18.74 1.14,23.08 -7.54,25.82 -1.15,0.23 -1.6,1.6 -1.37,2.52 0.22,0.91 1.14,1.37 2.05,1.37 0.23,0 0.46,0 0.69,0 11.88,-3.66 14.4,-11.43 10.28,-30.63 -1.83,-8 2.52,-15.77 9.83,-17.83 7.54,-2.28 15.54,2.29 17.83,9.83 0.69,2.74 2.97,6.63 19.66,19.89 0.91,0.68 2.28,0.45 2.97,-0.23 0.45,-0.92 0.23,-2.29 -0.69,-2.97z"/>
   <path class="fil0" d="M66.55 78.63c-0.91,-0.92 -2.51,-2.29 -4.8,-3.89 -6.85,-5.26 -18.51,-13.94 -21.48,-24 -0.23,-1.14 -1.37,-1.6 -2.52,-1.37 -1.14,0.23 -1.6,1.37 -1.37,2.51 3.2,11.2 15.54,20.57 22.86,26.06 1.83,1.37 3.65,2.74 4.34,3.43 0.46,0.46 0.91,0.68 1.37,0.68 0.46,0 1.15,-0.22 1.37,-0.68 1.15,-0.69 1.15,-2.06 0.23,-2.74z"/>
   <path class="fil0" d="M52.15 90.74c-0.45,-0.46 -0.91,-1.14 -1.37,-1.83 -2.06,-2.74 -5.03,-6.86 -10.28,-6.86 -6.86,0 -8,11.89 -8.23,14.17 0,1.15 0.68,2.06 1.83,2.06 0,0 0,0 0.23,0 1.14,0 2.05,-0.91 2.05,-1.83 0.23,-4.34 1.83,-10.28 4.12,-10.28 2.97,0 5.25,2.97 6.85,5.25 0.69,0.92 1.38,1.83 1.83,2.29 0.69,0.69 2.06,0.69 2.97,0 0.92,-0.68 0.92,-2.06 0,-2.97z"/>
   <path class="fil0" d="M32.27 71.08c-0.46,-1.14 -1.6,-1.6 -2.52,-1.37 -1.14,0.46 -1.6,1.6 -1.37,2.52 1.83,5.48 -1.6,16.22 -6.86,17.82 -1.14,0.46 -1.59,1.6 -1.37,2.52 0.23,0.91 1.15,1.37 2.06,1.37 0.23,0 0.46,0 0.69,0 7.77,-2.29 11.43,-16 9.37,-22.86z"/>
   <path class="fil0" d="M75.92 43.2c-2.51,-0.92 -4.57,-4.12 -6.85,-7.77 -5.03,-8 -11.66,-18.97 -30.63,-18.97 -19.2,0 -34.74,15.54 -34.74,34.74 0,1.14 0.91,2.05 2.05,2.05 1.15,0 2.06,-0.91 2.06,-2.05 0,-16.91 13.71,-30.63 30.63,-30.63 16.68,0 22.4,9.37 27.2,16.91 2.74,4.35 5.03,8.23 9.14,9.61 1.14,0.45 2.28,-0.23 2.51,-1.38 0.46,-0.91 -0.22,-2.05 -1.37,-2.51z"/>
   <path class="fil0" d="M9.64 64.68c-0.69,-1.37 -1.83,-4.11 -1.83,-5.25 0,-1.15 -0.91,-2.06 -2.05,-2.06 -1.15,0 -2.06,0.91 -2.06,2.06 0,2.51 1.83,6.4 2.28,7.08 0.46,0.69 1.15,1.14 1.83,1.14 0.23,0 0.69,0 0.92,-0.22 0.91,-0.46 1.37,-1.6 0.91,-2.75z"/>
   <path class="fil0" d="M68.84 21.71c-2.74,-4.8 -15.09,-13.48 -32.46,-13.48 -18.28,0 -28.11,9.6 -30.4,13.26 -0.68,0.91 -0.23,2.28 0.69,2.74 0.91,0.68 2.28,0.23 2.74,-0.69 1.83,-2.97 10.52,-11.2 26.97,-11.2 15.77,0 26.97,8 29.03,11.2 0.46,0.69 1.14,0.92 1.83,0.92 0.46,0 0.68,0 1.14,-0.23 0.92,-0.46 1.14,-1.6 0.46,-2.52z"/>
   <path class="fil0" d="M59.69 4.34c-0.68,-0.23 -1.59,-0.45 -2.28,-0.91 -4.57,-1.6 -9.14,-3.43 -20.8,-3.43 -10.74,0 -13.48,1.37 -16.91,3.2 -0.69,0.46 -1.37,0.69 -2.29,1.14 -0.91,0.46 -1.6,1.6 -0.91,2.75 0.23,1.14 1.37,1.6 2.28,1.14 0.92,-0.46 1.83,-0.92 2.52,-1.14 2.97,-1.6 5.25,-2.75 15.08,-2.75 10.97,0 15.09,1.6 19.43,3.2 0.69,0.23 1.6,0.69 2.29,0.92 0.22,0 0.45,0 0.68,0 0.92,0 1.6,-0.46 1.83,-1.38 0.68,-1.14 0,-2.28 -0.92,-2.74z"/>
   <path class="fil0" d="M77.29 34.29c-1.14,-3.43 -4.11,-8.46 -4.34,-8.69 -0.68,-0.91 -1.83,-1.37 -2.74,-0.69 -0.91,0.69 -1.37,1.83 -0.69,2.75 0,0 2.97,4.8 3.89,7.77 0.23,0.91 1.14,1.37 2.06,1.37 0.22,0 0.45,0 0.68,0 0.92,-0.23 1.6,-1.37 1.14,-2.51z"/>
  </g>
  <path class="fil1" d="M0 129.81l2.88 0 0 -9.93 7.78 0 0 -2.34 -7.78 0 0 -7.44 9.58 0 0 -2.34 -12.46 0 0 22.05zm30.75 0l3.03 0 -7.94 -21.92 -3.32 0 -7.97 21.92 3.04 0 1.77 -4.9 9.61 0 1.78 4.9zm-2.6 -7.24l-7.97 0 3.99 -11.14 3.98 11.14zm11.99 -4.34l0 -8.1 4.24 0c3.29,0 4.68,1.52 4.68,4.08 0,2.47 -1.39,4.02 -4.68,4.02l-4.24 0zm11.86 -4.02c0,-3.6 -2.43,-6.45 -7.62,-6.45l-7.12 0 0 22.05 2.88 0 0 -9.21 4.24 0c5.47,0 7.62,-3.03 7.62,-6.39zm5.38 15.6l2.91 0 0 -22.87 -5.94 0 0 2.62 3.03 0 0 20.25zm7.85 -11.67c0,6.64 1.64,11.67 7.97,11.67 6.29,0 7.94,-5.03 7.94,-11.67 0,-6.55 -1.65,-11.55 -7.94,-11.55 -6.33,0 -7.97,5 -7.97,11.55zm13.06 0c0,4.93 -0.6,9.04 -5.09,9.04 -4.52,0 -5.13,-4.11 -5.13,-9.04 0,-4.75 0.61,-8.92 5.13,-8.92 4.49,0 5.09,4.17 5.09,8.92z"/>
 </g>
</svg>
