<?xml version="1.0" encoding="UTF-8"?>
<!DOCTYPE svg PUBLIC "-//W3C//DTD SVG 1.1//EN" "http://www.w3.org/Graphics/SVG/1.1/DTD/svg11.dtd">
<!-- Creator: CorelDRAW 2019 (64-Bit) -->
<svg xmlns="http://www.w3.org/2000/svg" xml:space="preserve" width="456px" height="456px" version="1.1" style="shape-rendering:geometricPrecision; text-rendering:geometricPrecision; image-rendering:optimizeQuality; fill-rule:evenodd; clip-rule:evenodd"
viewBox="0 0 1075.62 1075.62"
 xmlns:xlink="http://www.w3.org/1999/xlink">
 <defs>
  <style type="text/css">
   <![CDATA[
    .fil1 {fill:#616161}
    .fil0 {fill:#616161;fill-rule:nonzero}
   ]]>
  </style>
 </defs>
 <g id="Layer_x0020_1">
  <metadata id="CorelCorpID_0Corel-Layer"/>
  <path class="fil0" d="M127.64 0l820.34 0c35.08,0 67,14.36 90.12,37.47 23.15,23.17 37.52,55.08 37.52,90.17l0 820.34c0,35.12 -14.35,67.03 -37.48,90.15 -23.11,23.12 -55.04,37.49 -90.16,37.49l-820.34 0c-35.06,0 -66.96,-14.35 -90.11,-37.49 -23.18,-23.19 -37.53,-55.09 -37.53,-90.15l0 -820.34c0,-35.13 14.36,-67.05 37.49,-90.17 23.11,-23.12 55.03,-37.47 90.15,-37.47zm820.34 21.36l-820.34 0c-29.21,0 -55.78,11.97 -75.04,31.22 -19.27,19.27 -31.23,45.85 -31.23,75.06l0 820.34c0,29.23 11.95,55.82 31.18,75.04 19.27,19.28 45.85,31.23 75.09,31.23l820.34 0c29.21,0 55.78,-11.96 75.05,-31.23 19.26,-19.26 31.22,-45.83 31.22,-75.04l0 -820.34c0,-29.23 -11.95,-55.81 -31.19,-75.08 -19.27,-19.24 -45.86,-31.2 -75.08,-31.2z"/>
  <path class="fil1" d="M15.28 565.78l1045.06 0 0 -487.73c-22.24,-40.58 -29.13,-46.98 -67.31,-67.29l-910.49 0c-36,18.47 -49.04,30.88 -67.26,67.29l0 487.73zm387.01 -342.55c-25.82,46.31 -61.28,100.26 -88.2,156.25 -66.5,178.89 236.36,183.6 178.33,5.64 -15.46,-47.36 -66.92,-136.15 -90.13,-161.89zm271.17 0c-29.31,49.49 -62.58,107.05 -88.12,156.36 -65.64,180.64 236.44,181.9 178.34,5.34 -17.08,-51.86 -63.45,-119.74 -90.22,-161.7zm-227.69 -104.53c-43.87,25.56 -8.35,93.13 40.97,72.36 49.64,-20.9 13.92,-104.33 -40.97,-72.36zm139.48 3.5c-51.19,40.87 7.66,93.66 47.32,63.85 40.69,-30.6 1.81,-103.07 -47.32,-63.85zm-63.7 -63.65c-28.87,22.48 0.27,67.44 34.48,43.31 23.88,-16.83 0.42,-70.43 -34.48,-43.31z"/>
  <path class="fil0" d="M140.61 951.66l44.48 0 0 -284.08 -44.48 0 0 284.08zm147.48 -146.31l0 -101.49 49.17 0c34.72,0 50.33,16.39 50.33,44.48 0,27.32 -15.61,57.01 -50.33,57.01l-49.17 0zm145.15 -57.01c0,-44.09 -31.61,-80.76 -95.98,-80.76l-93.65 0 0 284.08 44.48 0 0 -110.03 49.17 0c70.62,0 95.98,-54.66 95.98,-93.29zm48.38 -81.9l0 164.27 42.14 0c7.42,-21.07 24.97,-35.51 51.11,-35.51 37.07,0 55.41,21.07 55.41,58.14 0,35.11 -17.17,61.25 -55.41,61.25 -30.04,0 -50.33,-15.6 -56.18,-39.79l-43.31 0c6.63,44.48 40.58,76.86 99.1,76.86 65.94,0 98.33,-42.92 98.33,-99.49 0,-42.92 -21.46,-94.82 -91.3,-94.82 -25.36,0 -48.39,11.71 -58.92,25.76l0 -77.65 130.71 0 0 -39.02 -171.68 0zm373.4 285.22l43.7 0 0 -59.31 36.29 0 0 -38.62 -36.29 0 0 -183 -53.84 0 -131.1 188.07 0 33.55 141.24 0 0 59.31zm-90.13 -97.93l92.08 -137.74 0 137.74 -92.08 0z"/>
 </g>
</svg>
