<?xml version="1.0" encoding="UTF-8"?>
<svg id="Layer_1" xmlns="http://www.w3.org/2000/svg" version="1.1" viewBox="0 0 140 32.8">
  <!-- Generator: Adobe Illustrator 30.2.1, SVG Export Plug-In . SVG Version: 2.1.1 Build 1)  -->
  <defs>
    <style>
      .st0 {
        fill: #034694;
        fill-rule: evenodd;
      }
    </style>
  </defs>
  <g>
    <path class="st0" d="M41.4,3.06c.6.4,1.4,1.1,1.7,1.7,0,.1.1.1.1.2l6.6,14.5c-.1.8-.5,1.1-1.3,1.5-.4.1-.9.2-1,.2-1,.1-1.9-.1-2.6-.8-.1-.1-.3-.3-.3-.3,0-.1-.1-.1-.1-.2l-6.6-14.5-.1-.1c-.1-.1-.5-.1-.5-.1-.4,0-.9.3-.9.3h0l-5.8,8.7c-.2.3-.2,1-.1,1.3,0,.2.1.4.3.5.1.2.3.3.5.5.2.1.4.3.7.4.2.1.5.2.7.3.3.1.5.2.8.3.3.1.6.1.9.2.8.1,1.7.1,2.4-.1h.2c1.7-.7,2.2-1,3.7-2,.3.1.6.1.8.3.5.3.6.6.6,1.1-3.7,3.6-9.9,5.2-14.9,2.2-.2-.1-.4-.3-.6-.4-1.4-1.1-1.4-1.8-1-2.8l7.5-11.7c.1-.2.2-.3.4-.4.1-.1.3-.3.5-.4.2-.1.4-.2.6-.3.2-.1.4-.2.7-.3.4-.2,1.9-.5,2.3-.5,1.4-.3,2.5-.1,3.8.7Z"/>
    <path class="st0" d="M71.8,2.86l.1.1v16.8c0,.1-.1.3-.2.4-.4.4-.8.7-1.5.7-.5,0-1.4.1-1.8-.1-.6-.2-1.3-.7-1.3-1.2l-.2-6.2c-.1-.1-.2-.2-.2-.3-1.1-1.5-2.3-2.2-4-3.2-.4-.2-.8-.5-1.2-.6-.4-.2-.7-.4-1.1-.5-.2-.1-.4-.2-.5-.3-.1-.1-.3-.1-.4-.2-.1-.1-.3-.1-.4-.2-.2-.2-.4-.2-.5-.3s-.3-.1-.4-.2c-.4-.1-.9-.4-1.3-.5-.1,0-.2-.1-.2-.1-.5-.1-1.3.5-1.3.7v12.2c-.3.5-1.3.9-1.8.9h-1c-.9,0-1.4-.7-1.4-.9V3.96c.1-.1.2-.1.2-.2.9-1.5,2.8-1.6,4.5-1h.3c.2.1.5.2.7.3l1.5.6c.9.3,1.7.7,2.6,1.1.3.1.6.3.9.4.2.1.3.1.5.2.1.1.3.1.5.2.3.2.6.3.9.5.3.2.6.3.9.5.2.1.4.2.6.4.2.1.4.2.6.4.2.1.4.3.6.4s.4.2.6.4c.2.1.5,0,.6-.2V3.56c0-.2.1-.4.3-.6.4-.3.8-.5,1.4-.6,1.1-.2,1.8.1,2.4.5Z"/>
    <path class="st0" d="M75.3,2.56h15.9c1.2.6,1.5,1.7.3,2.4-.1.1-.6,0-.8,0h-4c-.3,0-.4,0-.6.1-.1.1-.4.3-.4.4-.1.1-.1.2-.1.3v13.7c0,.4-.3.8-.7,1-.4.2-.7.3-1.2.4-.7.1-1.1,0-1.8-.1-.5-.1-1.1-.3-1.2-.8h0V5.76l-.9-.7h-4.7c-.5-.1-1.1-.5-1.1-1.1v-.1c-.1-.6.5-1.3,1.3-1.3h0Z"/>
    <path class="st0" d="M109.9,4.86c.5.3,1.2,1,1.4,1.5.1.3.2.9.2,1.2v.1c0,2-4.2,3.8-6.2,4.5l.1.5c.2.1.3.2.5.4.2.1.3.2.5.4,1.9,1.7,3.7,2.8,5.5,4.7.3.3.5.6.7.8.4.5.1,1.1-.5,1.4-.3.2-.9.4-1.3.5-.8.2-2.4.2-3.2-.2-.1,0-.1-.1-.2-.1l-.1-.1c-.1-.2-.2-.3-.4-.5-.4-.5-.7-1-1.1-1.4-.3-.3-.5-.6-.8-.9s-.5-.6-.8-.9c-.3-.3-.6-.6-.9-.9-.3-.3-.6-.6-.9-.9-.2-.1-.3-.3-.5-.4-.2-.1-.3-.3-.5-.4-.2-.1-.3-.3-.5-.4-.2-.1-.3-.3-.5-.4h0c-.1-.1-.3-.3-.3-.4h0c0-.4.2-.6.5-.9l.1-.1.1-.1h0c.8-.7,2.9-1.5,4-2,.1,0,.2-.1.3-.1.2-.1.6-.4.7-.7.5-.7.1-1.8-.4-2.5-.2-.2-.4-.3-.6-.5s-.5-.3-.7-.5c-.1-.1-.3-.2-.4-.2-.1-.1-.3-.1-.4-.2s-.3-.1-.4-.2-.3-.1-.4-.1c-.3-.1-.6-.2-.9-.2s-.6-.1-1-.1c-.2,0-.3,0-.5.1-.1,0-.3.1-.4.1-.1,0-.2,0-.3.1s-.2.1-.2.2c-.1.1-.1.2-.2.2-.1.1-.1.2-.1.3s-.1.2-.1.3-.1.2-.1.3v13.6c-.1.2-.2.4-.3.5-.3.3-.8.5-1.2.6-.5.1-1.1.1-1.5.1-.5,0-2.1-.6-2.1-.9V5.96c0-.2,0-.5.1-.7s.2-.4.3-.6c.6-.9,2-1.4,3.2-1.7,5.2-1.6,8.2-.6,12.7,1.9Z"/>
    <path class="st0" d="M130,3.06c.6.4,1.4,1.1,1.7,1.7,0,.1.1.1.1.2l6.6,14.5c-.1.8-.5,1.1-1.3,1.5-.4.1-.9.2-1,.2-1,.1-1.9-.1-2.6-.8-.1-.1-.3-.3-.3-.3,0-.1-.1-.1-.1-.2l-6.7-14.4-.1-.1c-.1-.1-.5-.1-.5-.1-.4,0-.9.3-.9.3h0l-5.8,8.7c-.2.3-.2,1-.1,1.3,0,.2.1.4.3.5s.3.3.5.5c.2.1.4.3.7.4.2.1.5.2.7.3.3.1.5.2.8.3.3.1.6.1.9.2.8.1,1.7.1,2.4-.1h.2c1.7-.7,2.2-1,3.7-2,.3.1.6.1.8.3.5.3.6.6.6,1.1-3.7,3.6-9.9,5.2-14.9,2.2-.2-.1-.4-.3-.6-.4-1.4-1.1-1.4-1.8-1-2.8l7.5-11.7c.1-.2.2-.3.4-.4.1-.1.3-.3.5-.4.2-.1.4-.2.6-.3s.4-.2.7-.3c.4-.2,1.9-.5,2.3-.5,1.4-.3,2.6-.1,3.9.6Z"/>
    <path class="st0" d="M6,2.56c.1,0,.2.1.3.1l.3.2h.1c.1,0,.2.1.2.1h0c.6.3,5.1,5.6,5.7,6.3h0l.1.1.1.1h.4c1.1,0,6.7-5.7,7.8-6.7.8-.4,1.6-.3,2.4.1.7.4.8.9.8,1.1v15.4c0,.1-.1.2-.1.3-.1.1-.3.3-.4.5-.2.1-.4.3-.6.3-.1,0-.2.1-.4.1-1,.3-3.3.3-3.6-.8v-10.4h0c0-.2-.4-.2-.4-.2-.1,0-.3,0-.3.1l-5,4.5c-.4.3-1.4.4-1.9.3,0,0-.5-.1-.6-.2h0l-4.6-4.7c-.2,0-.5.1-.5.3v10.7c0,.1-.1.1-.1.2-.5.3-1.2.5-1.9.5s-1.3-.1-1.9-.4c-.1,0-.3-.2-.3-.2V3.66c0-.1.1-.2.2-.3s.2-.2.3-.3c.2-.2.8-.6,1.1-.7h0c.2,0,.4-.1.6-.1h.2c.9.2,1.2.2,2,.3Z"/>
  </g>
  <g>
    <path d="M103,30.32c-.41-.18-.73-.43-.97-.76s-.35-.71-.35-1.16h1.34c.03.33.16.6.39.81.23.21.56.32.97.32s.77-.11,1.01-.31c.24-.21.36-.48.36-.81,0-.26-.08-.47-.23-.63-.15-.16-.34-.29-.56-.37-.22-.09-.53-.18-.93-.29-.5-.13-.9-.27-1.22-.4s-.58-.35-.8-.63-.33-.67-.33-1.14c0-.44.11-.82.33-1.15s.53-.58.92-.76c.4-.18.85-.26,1.38-.26.74,0,1.35.19,1.82.56s.74.88.79,1.52h-1.39c-.02-.28-.15-.52-.4-.71s-.56-.3-.96-.3c-.36,0-.65.09-.88.27-.23.18-.34.45-.34.79,0,.24.07.43.21.58.14.15.32.27.54.36.22.09.52.18.9.29.51.14.92.28,1.24.42.32.14.59.35.81.64.22.29.34.68.34,1.16,0,.39-.1.76-.31,1.1-.21.34-.51.62-.91.83-.4.21-.87.31-1.41.31-.51,0-.98-.09-1.39-.27Z"/>
    <path d="M114.03,27.95h-4.63c.04.48.22.87.54,1.17.32.29.72.44,1.19.44.67,0,1.15-.28,1.43-.85h1.35c-.18.56-.51,1.01-1,1.37s-1.08.53-1.79.53c-.58,0-1.1-.13-1.56-.39-.46-.26-.82-.63-1.08-1.1-.26-.47-.39-1.02-.39-1.64s.13-1.17.38-1.64c.25-.47.61-.84,1.07-1.09.46-.26.98-.38,1.58-.38s1.08.12,1.53.37c.45.25.8.6,1.04,1.05s.37.97.37,1.56c0,.23-.01.43-.04.62ZM112.76,26.94c0-.46-.17-.83-.5-1.11-.32-.28-.72-.42-1.2-.42-.43,0-.8.14-1.11.41-.31.28-.49.65-.55,1.12h3.36Z"/>
    <path d="M119.64,24.65c.38.2.67.49.89.88.21.39.32.86.32,1.41v3.58h-1.24v-3.39c0-.54-.14-.96-.41-1.25-.27-.29-.64-.43-1.11-.43s-.84.15-1.12.43c-.27.29-.41.71-.41,1.25v3.39h-1.25v-6.06h1.25v.69c.21-.25.47-.44.79-.58.32-.14.66-.21,1.02-.21.48,0,.9.1,1.28.3Z"/>
    <path d="M123.36,30.36c-.38-.17-.68-.41-.9-.7-.22-.3-.34-.63-.35-1h1.3c.02.26.14.47.37.64.22.17.5.26.84.26s.62-.07.82-.2.29-.31.29-.52c0-.23-.11-.4-.33-.51-.22-.11-.56-.23-1.03-.36-.45-.12-.83-.25-1.11-.36-.29-.12-.53-.3-.74-.54s-.31-.56-.31-.96c0-.32.1-.62.29-.89.19-.27.46-.48.82-.63.36-.15.76-.23,1.23-.23.69,0,1.25.17,1.67.52.42.35.65.82.68,1.42h-1.25c-.02-.27-.13-.49-.33-.65-.2-.16-.47-.24-.8-.24s-.58.06-.76.19-.26.29-.26.5c0,.16.06.3.18.41.12.11.26.2.43.26.17.06.42.14.75.24.44.12.8.24,1.08.36.28.12.53.3.73.53.21.23.31.55.32.93,0,.34-.09.65-.29.92-.19.27-.46.48-.81.64-.35.15-.76.23-1.23.23s-.9-.09-1.28-.26Z"/>
    <path d="M129.39,30.23c-.46-.26-.83-.63-1.09-1.1-.26-.47-.4-1.02-.4-1.64s.14-1.16.41-1.64.64-.84,1.11-1.1c.47-.26.99-.38,1.57-.38s1.1.13,1.57.38c.47.26.84.62,1.11,1.1.27.48.41,1.02.41,1.64s-.14,1.16-.42,1.64c-.28.48-.66.85-1.14,1.11-.48.26-1.01.39-1.59.39s-1.09-.13-1.55-.39ZM131.85,29.3c.28-.15.51-.39.69-.69s.26-.68.26-1.12-.08-.81-.25-1.12c-.17-.3-.39-.53-.67-.69-.28-.15-.58-.23-.9-.23s-.62.08-.9.23c-.28.15-.49.38-.66.69-.16.3-.24.68-.24,1.12,0,.65.17,1.16.5,1.51s.75.53,1.26.53c.32,0,.62-.08.91-.23Z"/>
    <path d="M137.32,24.61c.3-.17.67-.26,1.08-.26v1.3h-.32c-.49,0-.86.12-1.12.37-.25.25-.38.68-.38,1.3v3.19h-1.25v-6.06h1.25v.88c.18-.31.43-.55.73-.72Z"/>
  </g>
</svg>